<?xml version="1.0" encoding="utf-8"?>
<!-- Generator: Adobe Illustrator 19.0.0, SVG Export Plug-In . SVG Version: 6.00 Build 0)  -->
<svg version="1.1" id="Capa_1" xmlns="http://www.w3.org/2000/svg" xmlns:xlink="http://www.w3.org/1999/xlink" x="0px" y="0px"
	 viewBox="-49 51 512 512" style="enable-background:new -49 51 512 512;" xml:space="preserve">
<g>
	<g>
		<path d="M440.8,51H-26.8c-5.2,0-9.5,4.3-9.5,9.5v161.6c0,5.2,4.3,9.5,9.5,9.5h155.7l32.5,32.5v54.6c0,3.2,1.6,6.2,4.3,8l36.5,23.8
			c1.6,1,3.4,17.5,5.2,17.5c1.7,0,3.4-16.5,4.9-17.4l39.5-23.8c2.9-1.7,4.6-4.8,4.6-8.1V264l32.5-32.5h151.9c5.2,0,9.5-4.3,9.5-9.5
			V60.5C450.3,55.3,446.1,51,440.8,51z M237.4,313.2l-29.8,17.9l-27.2-17.7v-43.8h57V313.2z M243,250.6h-68.2l-19-19H262L243,250.6z
			 M431.3,212.6H-17.3V70h448.6V212.6z"/>
	</g>
</g>
<g>
	<g>
		<path d="M440.8,464.1h-38c-5.2,0-9.5,4.3-9.5,9.5v28.5H273.5v-67.6c0,0,157.2-4,157.3-4.1c4.8-1.9,7.3-7.5,5.4-12.3
			c0,0-13.7-37.8-13.8-37.8c-1.8-4.7-7.6-7.3-12.3-5.4L207,377.8c0,0-203-2.8-203.2-2.9c-4.8-1.9-10.5,0.7-12.3,5.4
			c0,0-13.7,37.8-13.8,37.8c-1.9,4.8,0.7,10.5,5.4,12.3l157.3,4.1v67.6H20.7v-28.5c0-5.2-4.3-9.5-9.5-9.5h-38
			c-5.2,0-9.5,4.3-9.5,9.5v76c0,5.2,4.3,9.5,9.5,9.5h467.6c5.2,0,9.5-4.3,9.5-9.5v-76C450.3,468.4,446.1,464.1,440.8,464.1z
			 M217.3,435.1h37.2v67h-95v-67h37.2H217.3z M-17.3,483.1h19v19h-19V483.1z M431.3,540.1H-17.3v-19h448.6V540.1z M431.3,502.1h-19
			v-19h19V502.1z"/>
	</g>
</g>
<g>
	<g>
		<path d="M90.9,104.3c-20.4-20.4-53.5-20.4-73.9,0c-20.4,20.4-20.4,53.5,0,73.9c10.2,10.2,23.6,15.3,37,15.3s26.8-5.1,37-15.3
			C111.3,157.9,111.3,124.7,90.9,104.3z M77.5,164.8c-13,13-34.1,13-47,0c-13-13-13-34.1,0-47c6.5-6.5,15-9.7,23.5-9.7
			c5.5,0,10.9,1.3,15.8,4l-22.5,22.5c-3.7,3.7-3.7,9.7,0,13.4c3.6,3.6,9.8,3.7,13.4,0l22.5-22.5C90,138.1,88.1,154.2,77.5,164.8z"/>
	</g>
</g>
<g>
	<g>
		<path d="M214.5,104.3c-20.4-20.4-53.5-20.4-73.9,0c-20.4,20.4-20.4,53.5,0,73.9c10.2,10.2,23.6,15.3,37,15.3s26.8-5.1,37-15.3
			C234.9,157.9,234.9,124.7,214.5,104.3z M201.1,164.8c-13,13-34.1,13-47,0c-10.6-10.6-12.5-26.7-5.7-39.3c0,0,22.5,22.5,22.5,22.5
			c3.5,3.5,9.8,3.6,13.4,0c3.7-3.7,3.7-9.7,0-13.4L161.7,112c4.9-2.7,10.4-4,15.8-4c8.5,0,17,3.2,23.5,9.7
			C214,130.7,214,151.8,201.1,164.8z"/>
	</g>
</g>
<g>
	<g>
		<path d="M364.8,89c-5.2,0-9.5,4.3-9.5,9.5V146c0,5.2,4.3,9.5,9.5,9.5s9.5-4.3,9.5-9.5V98.5C374.3,93.3,370,89,364.8,89z"/>
	</g>
</g>
<g>
	<g>
		<path d="M364.8,174.6c-5.2,0-9.5,4.3-9.5,9.5s4.3,9.5,9.5,9.5s9.5-4.3,9.5-9.5S370,174.6,364.8,174.6z"/>
	</g>
</g>
<g>
	<g>
		<path d="M326.8,89c-5.2,0-9.5,4.3-9.5,9.5V146c0,5.2,4.3,9.5,9.5,9.5c5.2,0,9.5-4.3,9.5-9.5V98.5C336.3,93.3,332,89,326.8,89z"/>
	</g>
</g>
<g>
	<g>
		<path d="M326.8,174.6c-5.2,0-9.5,4.3-9.5,9.5s4.3,9.5,9.5,9.5c5.2,0,9.5-4.3,9.5-9.5S332,174.6,326.8,174.6z"/>
	</g>
</g>
<g>
	<g>
		<path d="M288.7,174.6c-5.2,0-9.5,4.3-9.5,9.5s4.3,9.5,9.5,9.5c5.2,0,9.5-4.3,9.5-9.5S294,174.6,288.7,174.6z"/>
	</g>
</g>
<g>
	<g>
		<path d="M288.7,89c-5.2,0-9.5,4.3-9.5,9.5V146c0,5.2,4.3,9.5,9.5,9.5c5.2,0,9.5-4.3,9.5-9.5V98.5C298.2,93.3,294,89,288.7,89z"/>
	</g>
</g>
</svg>
