<svg height="512pt" viewBox="-2 0 511 512" width="512pt" xmlns="http://www.w3.org/2000/svg"><path d="m253.992188 512c4.710937 0 8.53125-3.820312 8.53125-8.535156v-122.792969l9.75 16.25c2.441406 4.003906 7.65625 5.285156 11.675781 2.871094 4.019531-2.410157 5.34375-7.617188 2.957031-11.65625l-25.597656-42.664063c-.070313-.121094-.191406-.179687-.269532-.292968-.453124-.675782-1.003906-1.277344-1.628906-1.792969-.179687-.148438-.3125-.339844-.5-.476563-.800781-.574218-1.695312-1.007812-2.640625-1.273437l-.117187-.011719c-.230469-.0625-.46875-.035156-.703125-.074219-1.09375-.273437-2.246094-.238281-3.320313.097657-.695312.148437-1.367187.386718-2.003906.707031-.167969.085937-.359375.085937-.527344.1875-.164062.105469-.253906.269531-.410156.378906-.570312.398437-1.085938.871094-1.539062 1.398437-.253907.261719-.488282.539063-.707032.832032-.078125.117187-.195312.195312-.269531.316406l-25.601563 42.667969c-1.59375 2.613281-1.664062 5.882812-.183593 8.566406 1.476562 2.683594 4.28125 4.363281 7.34375 4.410156 3.066406.042969 5.917969-1.558593 7.472656-4.195312l9.753906-16.246094v122.792969c0 4.714844 3.820313 8.535156 8.535157 8.535156zm0 0"/><path d="m5.492188 429.167969 24.132812 24.132812c6.664062 6.65625 17.464844 6.65625 24.132812 0l151.957032-151.957031c26.683594-26.609375 69.867187-26.609375 96.550781 0l151.957031 151.957031c6.667969 6.65625 17.46875 6.65625 24.136719 0l24.132813-24.132812c6.652343-6.667969 6.652343-17.464844 0-24.136719l-115.179688-115.175781c22.832031-2.433594 41.265625-19.75 45.109375-42.390625h26.367187c9.421876-.007813 17.058594-7.644532 17.066407-17.066406v-213.332032c-.007813-9.421875-7.644531-17.0585935-17.066407-17.066406h-409.597656c-9.421875.0078125-17.058594 7.644531-17.066406 17.066406v213.332032c.007812 9.421874 7.644531 17.058593 17.066406 17.066406h26.367188c3.847656 22.640625 22.277344 39.957031 45.109375 42.390625l-115.175781 115.175781c-6.65625 6.671875-6.65625 17.46875 0 24.136719zm376.5-156.101563c-5.191407-.019531-10.308594-1.21875-14.96875-3.5l-15.734376-15.734375c-6.050781-12.445312-3.980468-27.3125 5.238282-37.632812 10.449218-11.703125 27.53125-14.773438 41.402344-7.449219 13.871093 7.328125 20.964843 23.167969 17.191406 38.394531-3.773438 15.226563-17.441406 25.921875-33.128906 25.921875zm-204.988282-36.160156c-.34375-9.066406-3.101562-17.875-7.984375-25.523438l84.972657-84.96875 84.96875 84.96875c-4.882813 7.648438-7.636719 16.457032-7.984376 25.523438-46.433593-31.679688-107.535156-31.679688-153.972656 0zm-127.8125-219.839844h409.597656v213.332032h-26.367187c-2.96875-17.808594-15.121094-32.726563-31.960937-39.234376-16.84375-6.507812-35.871094-3.640624-50.042969 7.542969l-84.367188-84.367187c-6.671875-6.644532-17.460937-6.640625-24.128906.007812l-84.359375 84.359375c-14.171875-11.183593-33.199219-14.050781-50.039062-7.539062-16.839844 6.507812-28.992188 21.421875-31.964844 39.230469h-26.367188zm76.800782 256c-18.851563 0-34.136719-15.28125-34.136719-34.132812 0-18.851563 15.285156-34.132813 34.136719-34.132813 18.851562 0 34.132812 15.28125 34.132812 34.132813-.019531 5.160156-1.191406 10.25-3.433594 14.898437l-15.730468 15.734375c-4.664063 2.28125-9.78125 3.480469-14.96875 3.5zm43.523437-7.925781c46.6875-46.570313 122.261719-46.570313 168.949219 0l151.957031 151.960937-24.132813 24.132813-151.957031-151.960937c-33.351562-33.265626-87.332031-33.265626-120.683593 0l-151.957032 151.960937-24.132812-24.132813zm0 0"/></svg>