<svg height="480pt" viewBox="0 0 480.01441 480" width="480pt" xmlns="http://www.w3.org/2000/svg"><path d="m472.011719 432.007812h-168v-72.242187l171.117187-72.390625c2.035156-.859375 3.625-2.523438 4.390625-4.597656.765625-2.074219.640625-4.371094-.347656-6.347656l-16-32c-1.871094-3.738282-6.304687-5.410157-10.175781-3.832032l-212.984375 86.769532-212.984375-86.769532c-3.871094-1.578125-8.308594.09375-10.175782 3.832032l-16 32c-.992187 1.972656-1.121093 4.265624-.367187 6.335937.757813 2.074219 2.339844 3.742187 4.367187 4.609375l171.160157 72.367188v72.265624h-168c-4.417969 0-8.0000002 3.582032-8.0000002 8v32c0 4.417969 3.5820312 8 8.0000002 8h464c4.417969 0 8-3.582031 8-8v-32c0-4.417968-3.582031-8-8-8zm-444.160157-173.800781 209.144532 85.207031c1.929687.792969 4.097656.792969 6.03125 0l209.144531-85.207031 8.871094 17.753907-221.03125 91.613281-221.03125-91.613281zm164.160157 157.800781h32c4.417969 0 8-3.582031 8-8 0-4.417968-3.582031-8-8-8h-32v-33.496093l45.472656 17.078125c1.636719.554687 3.414063.554687 5.054687 0l45.472657-17.046875v33.464843h-32c-4.417969 0-8 3.582032-8 8 0 4.417969 3.582031 8 8 8h32v16h-96zm272 48h-448v-16h448zm0 0"/><path d="m194.355469 221.664062 40 40c3.125 3.121094 8.1875 3.121094 11.3125 0l40-40c1.5-1.5 2.34375-3.535156 2.34375-5.65625v-72h16c4.417969 0 8-3.582031 8-8v-40h56c4.417969 0 8-3.582031 8-8v-80c0-4.417968-3.582031-7.9999995-8-7.9999995h-256c-4.417969 0-8 3.5820315-8 7.9999995v80c0 4.417969 3.582031 8 8 8h56v40c0 4.417969 3.582031 8 8 8h16v72c0 2.121094.84375 4.15625 2.34375 5.65625zm77.65625-8.96875-32 32-32-32v-68.6875h24v24c0 4.417969 3.582031 8 8 8s8-3.582031 8-8v-24h24zm-152-196.6875h16v32c0 4.417969 3.582031 8 8 8s8-3.582031 8-8v-32h24v40c0 4.417969 3.582031 8 8 8s8-3.582031 8-8v-40h16v24c0 4.417969 3.582031 8 8 8s8-3.582031 8-8v-24h24v24c0 4.417969 3.582031 8 8 8s8-3.582031 8-8v-24h24v32c0 4.417969 3.582031 8 8 8s8-3.582031 8-8v-32h24v40c0 4.417969 3.582031 8 8 8s8-3.582031 8-8v-40h16v64h-240zm64 80h112v32h-112zm0 0"/><path d="m240.011719 192.007812c-4.417969 0-8 3.582032-8 8v8c0 4.417969 3.582031 8 8 8s8-3.582031 8-8v-8c0-4.417968-3.582031-8-8-8zm0 0"/></svg>