<svg id="Capa_1" enable-background="new 0 0 512 512" height="512" viewBox="0 0 512 512" width="512" xmlns="http://www.w3.org/2000/svg"><g><path d="m479.056 137.037c-2.814-2.814-6.63-4.396-10.609-4.396h-80.812v-41.926c0-35.85-29.167-65.017-65.017-65.017h-67.007c-15.431-16.801-37.536-26.297-60.529-25.669-32.957.887-61.237 22.021-72.035 52.081h-49.398c-24.866 0-45.096 20.23-45.096 45.096 0 17.493 10.019 32.681 24.613 40.156-2.949 5.992-4.613 12.727-4.613 19.844 0 14.38 6.774 27.2 17.289 35.463-4.603 7.068-7.289 15.492-7.289 24.537 0 24.458 19.575 44.417 43.879 45.065-1.804 4.918-2.789 10.228-2.789 15.763 0 25.304 20.586 45.89 45.89 45.89 1.613 0 3.206-.086 4.777-.249.305 8.374.472 15.558.475 20.819l.021 18.434h-79.502c-8.284 0-15 6.716-15 15v63.15c0 8.284 6.716 15 15 15h14.971v40.922c0 8.284 6.716 15 15 15h192.292c8.284 0 15-6.716 15-15v-40.921h14.971c8.284 0 15-6.716 15-15v-63.15c0-8.284-6.716-15-15-15h-79.258l-.021-18.061c-.002-3.331.059-7.412.18-12.091l80.028.148c27.803 0 51.588-17.821 59.963-43.189h83.95c8.281 0 14.996-6.711 15-14.992l.066-127.095c.003-3.98-1.577-7.797-4.39-10.612zm-333.532 35.255-51.875.012c-8.324 0-15.096-6.772-15.096-15.096 0-7.544 5.569-13.795 12.808-14.904l51.874-.012c8.324 0 15.096 6.772 15.096 15.096.001 7.544-5.568 13.795-12.807 14.904zm-71.875-90.181h49.767c8.324 0 15.096 6.772 15.096 15.096 0 7.544-5.743 13.969-12.982 15.078l-51.881.018c-8.324 0-15.096-6.772-15.096-15.096s6.772-15.096 15.096-15.096zm14.904 135.096c0-7.544 5.569-13.795 12.808-14.904h52.055c8.324 0 15.096 6.58 15.096 14.904s-6.772 15.096-15.096 15.096h-49.767c-8.324 0-15.096-6.772-15.096-15.096zm41.09 60.828c0-8.043 6.011-14.692 13.774-15.732h4.232c7.762 1.04 13.774 7.689 13.774 15.732 0 8.762-7.128 15.89-15.89 15.89s-15.89-7.128-15.89-15.89zm148.924 203.965h-162.292v-25.921h162.292zm29.971-55.921h-222.234v-33.15h79.519.018 142.698v33.15zm-127.732-63.15-.021-18.461c-.006-8.504-.386-21.065-1.079-35.846 7.279-8.124 11.716-18.845 11.716-30.586 0-9.949-3.193-19.161-8.594-26.687 9.593-8.276 15.683-20.507 15.683-34.141 0-14.38-6.774-27.2-17.289-35.463 4.603-7.068 7.289-15.492 7.289-24.537 0-17.493-10.018-32.68-24.613-40.155 2.949-5.992 4.613-12.727 4.613-19.844 0-14.295-6.693-27.048-17.102-35.316 4.661-12.639 14.326-22.68 26.49-27.914-1.392 2.774-1.917 5.935-1.424 9.059 2.062 13.066 6.543 25.459 13.319 36.837 10.736 18.025 26.845 32.073 45.688 40.661-12.369 52.163-18.963 156.716-20.569 196.298-.007.108-.66 21.452-.656 28.062l.021 18.034h-33.472zm272.582-103.194h-81.008c-7.691 0-14.136 5.817-14.921 13.468-1.74 16.944-15.924 29.722-32.964 29.722l-78.857-.146c2.727-53.743 9.328-133.272 18.703-173.796 4.901.7 9.883 1.061 14.912 1.061h.049l25.027-.012c8.285-.004 14.997-6.723 14.993-15.007-.004-8.282-6.718-14.993-15-14.993-.002 0-.005 0-.007 0l-25.027.012c-.013 0-.023 0-.036 0-26.231 0-50.632-13.609-63.683-35.521-1.7-2.855-3.197-5.8-4.487-8.824h111.534c19.308 0 35.017 15.708 35.017 35.017v56.926c0 8.284 6.716 15 15 15h80.804z"/></g></svg>