<?xml version="1.0"?>
<svg xmlns="http://www.w3.org/2000/svg" xmlns:xlink="http://www.w3.org/1999/xlink" xmlns:svgjs="http://svgjs.com/svgjs" version="1.1" width="512" height="512" x="0" y="0" viewBox="0 0 512 512" style="enable-background:new 0 0 512 512" xml:space="preserve" class=""><g><g xmlns="http://www.w3.org/2000/svg"><g><g><path d="m371.208 392.822 29.548-41.93c2.386-3.385 1.575-8.064-1.81-10.45-3.385-2.384-8.064-1.575-10.45 1.81l-27.336 38.79-12.666-13.697c-2.813-3.041-7.557-3.227-10.598-.415s-3.226 7.557-.415 10.598l15.276 16.519c5.156 5.572 14.105 4.943 18.451-1.225z" fill="#000000" data-original="#000000" style="" class=""/><path d="m494.033 457.066c0-21.385-8.994-41.258-24.841-55.308 2.714-9.439 4.172-19.405 4.172-29.706 0-59.349-48.283-107.632-107.631-107.632-16.991 0-33.071 3.963-47.375 11.005l1.563-19.119c8.088-2.643 14.402-9.239 16.549-17.862 8.322-33.445 18.721-67.244 30.91-100.455 24.889-67.834-31.631-137.989-111.38-137.989-24.872 0-48.629 6.888-68.704 19.919-3.474 2.256-4.462 6.9-2.207 10.374 2.257 3.474 6.901 4.461 10.374 2.207 17.637-11.449 38.571-17.501 60.537-17.501 70.001 0 118.385 60.375 97.299 117.824-12.373 33.716-22.932 68.035-31.384 102.001-1.097 4.406-4.866 7.518-9.379 7.743-.17.008-.341.013-.512.013h-112.048c-.171 0-.341-.005-.512-.014-4.514-.224-8.283-3.335-9.379-7.742-8.451-33.963-19.011-68.282-31.385-102.001-9.304-25.35-5.684-54.462 12.679-78.279 2.529-3.28 1.92-7.989-1.36-10.518-3.28-2.528-7.988-1.921-10.518 1.36-21.777 28.244-25.814 62.816-14.882 92.604 12.188 33.214 22.589 67.012 30.91 100.455 2.146 8.622 8.46 15.219 16.548 17.861l6.727 82.3h-1.193c-16.949 0-30.739 13.789-30.739 30.738v13.722h-74.906c-40.803 0-73.999 33.197-73.999 74 0 11.178 8.153 20.482 18.824 22.294v5.052c-.001 15.212 12.375 27.588 27.588 27.588h383.242c15.212 0 27.588-12.376 27.588-27.589v-5.052c10.671-1.81 18.824-11.115 18.824-22.293zm-35.668-85.014c0 51.078-41.554 92.633-92.632 92.633s-92.633-41.555-92.633-92.633 41.555-92.633 92.633-92.633 92.632 41.555 92.632 92.633zm-251.134-114.475h97.538l-2.241 27.413c-18.12 13.191-31.98 31.889-39.1 53.617h-49.573zm-25.358 111.767c0-8.678 7.061-15.739 15.74-15.739h62.076c-1.04 5.996-1.588 12.158-1.588 18.447 0 3.718.19 7.392.56 11.014h-76.788zm-148.908 87.722c0-32.534 26.468-59.001 59.001-59.001h169.32c7.04 28.256 25.273 52.129 49.701 66.621h-270.402c-4.201-.001-7.62-3.418-7.62-7.62zm414.656 39.935h-383.242c-6.942 0-12.59-5.648-12.59-12.59v-4.727h408.421v4.727c0 6.942-5.647 12.59-12.589 12.59zm23.793-32.316h-50.936c18.713-11.102 33.79-27.707 42.986-47.573 9.99 10.808 15.57 24.913 15.57 39.953.001 4.203-3.418 7.62-7.62 7.62z" fill="#000000" data-original="#000000" style="" class=""/><path d="m296.895 361.03c4.006 1.09 8.12-1.276 9.207-5.264 7.299-26.797 31.821-45.511 59.631-45.511 27.752 0 52.259 18.665 59.598 45.392 1.097 3.993 5.219 6.343 9.218 5.246 3.994-1.097 6.342-5.223 5.246-9.218-9.122-33.218-39.577-56.418-74.061-56.418-34.558 0-65.03 23.261-74.102 56.567-1.09 3.995 1.267 8.117 5.263 9.206z" fill="#000000" data-original="#000000" style="" class=""/><path d="m434.791 381.577c-4.015-1.006-8.089 1.445-9.089 5.464-6.864 27.56-31.524 46.809-59.969 46.809-28.444 0-53.104-19.246-59.969-46.805-1.002-4.019-5.072-6.466-9.089-5.464-4.019 1.001-6.465 5.07-5.464 9.089 8.533 34.255 39.177 58.179 74.522 58.179 35.347 0 65.992-23.926 74.522-58.183 1.001-4.019-1.445-8.088-5.464-9.089z" fill="#000000" data-original="#000000" style="" class=""/></g></g></g></g></svg>
